<?xml version="1.0" encoding="utf-8"?>
<!-- Generator: Adobe Illustrator 24.0.1, SVG Export Plug-In . SVG Version: 6.00 Build 0)  -->
<svg version="1.1" id="Capa_1" xmlns="http://www.w3.org/2000/svg" xmlns:xlink="http://www.w3.org/1999/xlink" x="0px" y="0px"
	 viewBox="0 0 177.7 275.1" style="enable-background:new 0 0 177.7 275.1;" xml:space="preserve">
<style type="text/css">
	.st0{fill:#FFEA2C;}
	.st1{fill:#FFFFFF;}
</style>
<path class="st0" d="M156,249.6H21.7c-7.6,0-13.7-6.1-13.7-13.7V39.1c0-7.6,6.1-13.7,13.7-13.7H156c7.6,0,13.7,6.1,13.7,13.7v196.8
	C169.7,243.5,163.6,249.6,156,249.6z"/>
<path class="st1" d="M114.7,246.9c-3.3-6.1-4.3-12.5-4.8-18.6c-0.5-6.1,2.5-24.3,1.5-29.1s1.6-18.9,2.8-27.6c0.4-3.1,0.5-7.8,0.2-13
	c2.9-1.2,5.3-7.7,5.3-11.4c0-4.1-2-10-2.3-12.6s0-21.2-1-25.2c-1-4-3.2-6.6-3.3-9s-0.4-22.7-0.6-25.4s3.8-12.9-4.2-16.3
	c-0.6-0.3-1.1-0.4-1.5-0.6C104,56.6,98,54.8,92,53.6c-1.6-1.3-0.4-5.4-0.3-5.7c0.1-0.4,1-0.1,3.1-2.7c1.1-1.4,1.7-10.7,1.7-11.5
	c0-0.8,4.1-12.3-4.1-15.8c-9.6-4.2-11.7,0.4-15.8,3.4c-1.4,1-1.6,9.6-2.3,10.4c-0.7,0.8,0.2,5,1.5,7.5c0.3,0.5,0.5,0.9,0.8,1.3
	c1.3,1.5,2,3.3,2,5.3v5c0,0.8-0.4,1.6-1,2.3c-3.8,0.8-8.2,2.2-11.2,3.3c-5.1,0.9-11.4,5.4-9.4,22.6c0,0-0.8,26.4-0.4,28.2
	s2.5,16.3,2.5,19.8c0,3.5,2.3,14.7,2.2,16.7c-0.1,2-1.2,12,0.9,14.7c2,2.7,4.3,4.5,6.6,4.2c1-0.1,1.9-1.1,2.5-2.3
	c0.7,5.5,5.6,25.1,5.4,32s-2,9.7-2.8,14s3.6,29.9,3.3,37c-0.2,4.8-3.3,8.7-5.3,10.9c-0.8,0.9-0.6,2.3,0.6,2.8c2.3,1,5.7,2.1,8.3,1.7
	c4.3-0.8,3.6-3.3,4.3-7.1s0.2-6.1,0-11c-0.2-4.9-0.3-21.4-0.2-25.5c0-4.1,1.5-17.4,0.2-20.7s3.1-12.8,3.8-19.1
	c0.6-4.7,0.3-22.5,0.1-31.7l0,0c0,0,1.8,0.2,4.3,0.4c2,11.3,6.1,34.2,6.8,37.4c1,4.3,0.8,16.1,0,20.7c-0.8,4.6,2.4,19.4,2.9,27.3
	s-1.7,12.8,0,18.4c1.7,5.6,11.9,12,16.7,7.9C124.4,251.6,118,253.1,114.7,246.9z M70.3,145.5c0,0.1,0,0.1,0,0.2
	c-0.1-0.2-0.2-0.3-0.3-0.5C70.1,145.4,70.2,145.4,70.3,145.5z M110.3,123.8c0.3,0.5,4.1,12.4,4.1,16.6c0,1.5-0.6,4.3-1.1,7.3
	c-0.8-5.6-1.9-10.6-3.2-13c-0.2-0.4-0.4-0.7-0.7-1.1c-0.7-3.6-1.4-7.4-1.9-10.2c0.1-0.1,0.1-0.2,0-0.3c-0.4-0.8-0.5-6.5-0.6-14.3
	C108.6,116.4,110.2,123.5,110.3,123.8z M65.8,136c0-4.6,1.4-19.9,0.4-25.4c-1-5.5-2.5-5.4-1.6-9.4c0.7-3.2,3.4-11,4.2-16.6
	c2.1,5.1,4.4,10.4,5.1,15.6c1,7.6-1,17.5-1.9,21.3l0,0c-0.1,0.2-0.2,0.7-0.3,1.3c-0.1,0.2-0.1,0.3-0.1,0.3h0
	c-1.1,4.6-3.7,17-1.9,21.5l0,0l0,0C67.8,141.9,65.8,140.6,65.8,136z"/>
</svg>
