<?xml version="1.0" encoding="utf-8"?>
<!-- Generator: Adobe Illustrator 24.0.1, SVG Export Plug-In . SVG Version: 6.00 Build 0)  -->
<svg version="1.1" id="Capa_1" xmlns="http://www.w3.org/2000/svg" xmlns:xlink="http://www.w3.org/1999/xlink" x="0px" y="0px"
	 viewBox="0 0 177.7 275.1" style="enable-background:new 0 0 177.7 275.1;" xml:space="preserve">
<style type="text/css">
	.st0{fill:#F29F05;}
	.st1{fill:#FFFFFF;}
</style>
<path class="st0" d="M156,249.6H21.7c-7.6,0-13.7-6.1-13.7-13.7V39.1c0-7.6,6.1-13.7,13.7-13.7H156c7.6,0,13.7,6.1,13.7,13.7v196.8
	C169.7,243.5,163.6,249.6,156,249.6z"/>
<path class="st1" d="M120.2,155.9c5.1,0.1,9.6-7.5,9.6-11.6s-3.1-10-3.5-12.6s0-21.2-1.6-25.2s-4.9-6.6-5.1-9s-0.6-22.7-1-25.4
	c-0.4-2.7,5.9-12.9-6.5-16.3c-2.6-0.7-4.4-1-5.7-0.9c-5.5-2.1-12.9-5.1-16.6-6c0.2-1,0.4-1.9,0.5-2c0.1-0.4,1.1-0.1,3.4-2.7
	c1.3-1.4,1.9-10.7,1.9-11.5c0-0.8,4.6-12.3-4.6-15.8c-10.8-4.2-13.2,0.4-17.8,3.4c-1.5,1-1.8,9.6-2.6,10.4s0.2,5,1.7,7.5
	c0.3,0.5,0.6,0.9,0.9,1.3c1.4,1.5,2.3,3.3,2.3,5.3v5c0,1.3-1,2.4-2.3,3.3c-3.5,1.1-8.2,2.8-10.9,4.6c-7.6,1.1-16.7,5.8-13.7,22.5
	c0,0-1.2,26.4-0.6,28.2c0.6,1.8,3.9,16.3,3.9,19.8c0,3.5,3.5,14.7,3.3,16.7s-1.8,12,1.4,14.7c3.1,2.7,6.6,4.4,10.1,4.2
	c1.9,7.3,7.4,23.8,7.1,29.9c-0.4,6.9-2.9,9.7-3.9,14c-1.1,4.3,5,29.9,4.7,37c-0.2,4.8-4.6,8.7-7.5,10.9c-1.2,0.9-0.8,2.3,0.8,2.8
	c3.2,1,8,2.1,11.7,1.7c6.1-0.8,5-3.3,6.1-7.1c1.1-3.8,0.3-6.1,0-11s-0.4-21.4-0.3-25.5c0.1-4.1,2.1-17.4,0.3-20.7s4.3-12.8,5.4-19.1
	c0.5-2.7,0.5-10,0.4-17.4c2.5,10,5.1,20.1,5.8,22.2c1.4,4.3,1.1,16.1,0,20.7s3.4,19.4,4,27.3c0.6,7.9-2.4,12.8,0,18.4
	c2.4,5.6,16.8,12,23.4,7.9c6.6-4.1-2.3-2.6-7-8.7c-4.7-6.1-6.1-12.5-6.8-18.6s3.5-24.3,2.1-29.1c-1.4-4.9,2.2-18.9,4-27.6
	c1.6-7.6-0.4-25.7-4.1-34.1l0,0c0,0,0,0,0,0c-0.5-1.1-1-2.1-1.6-2.9c-2.3-4.7-5.9-15.4-3.5-32.2c0.1-1,0.3-2,0.4-2.9
	c2.9,9.5,6.9,21,7.2,21.4c0.4,0.5,6.3,12.4,6.3,16.6S115.1,155.8,120.2,155.9z M62.3,137c0-4.6,2.2-19.9,0.6-25.4
	c-1.6-5.5-3.9-5.4-2.5-9.4c0.9-2.7,4-8.7,5.7-13.8c0.7,2.6,1.2,5,1.7,6.9c2,9.4-2.3,29-1.8,37.8c-0.2,0.6-0.3,5-0.4,10.3
	C63.8,141.7,62.3,140.1,62.3,137z"/>
</svg>
