<?xml version="1.0" encoding="utf-8"?>
<!-- Generator: Adobe Illustrator 24.0.1, SVG Export Plug-In . SVG Version: 6.00 Build 0)  -->
<svg version="1.1" id="Capa_1" xmlns="http://www.w3.org/2000/svg" xmlns:xlink="http://www.w3.org/1999/xlink" x="0px" y="0px"
	 viewBox="0 0 177.7 275.1" style="enable-background:new 0 0 177.7 275.1;" xml:space="preserve">
<style type="text/css">
	.st0{fill:#FF781D;}
	.st1{fill:#FFFFFF;}
</style>
<path class="st0" d="M156.1,250.5H21.9c-7.6,0-13.7-6.1-13.7-13.7V40c0-7.6,6.1-13.7,13.7-13.7h134.3c7.6,0,13.7,6.1,13.7,13.7
	v196.8C169.8,244.3,163.7,250.5,156.1,250.5z"/>
<path class="st1" d="M123.1,153.4c4.8-0.2,8.6-8.1,8.4-12.2c-0.3-4.1-3.6-9.8-4.1-12.4c-0.5-2.7-1.3-21.2-3.1-25.1s-5.1-6.3-5.4-8.7
	c-0.3-2.4-2-22.6-2.5-25.3s4.8-13.2-7.2-15.9c-2.2-0.5-3.7-0.7-4.8-0.6c-2.4-1.7-6.2-3.1-12.1-4.6c-0.4-0.1-0.8-0.2-1.1-0.3
	c0.1-1.3,0.5-2.6,0.6-2.8c0.1-0.4,1.1-0.1,3.4-2.7c0.2-0.2,0.3-0.5,0.5-1c0.7-1.2,1.3-2.6,1.5-4.3c0.2-1.5,0.1-2.9-0.2-4.1
	c0.1-1.1,0.1-1.9,0.1-2.1c0-0.8,4.6-12.3-4.6-15.8C81.6,11.4,79.2,16,74.6,19c-1.5,1-1.8,9.6-2.6,10.4s0.2,5,1.7,7.5
	c0.3,0.5,0.6,0.9,0.9,1.3c1.4,1.5,2.3,3.3,2.3,5.3v5c0,0.1,0,0.1,0,0.2c-4.4,1.3-7.6,3.8-9.6,6c-6.6,0.8-13.4,5.2-13.5,19.6
	c0,0-5.8,25.8-5.6,27.7s0.8,16.7,0.1,20.1c-0.6,3.4,0.7,15,0.1,17s-3.8,11.5-1.3,14.7s5.4,5.5,8.8,5.9c2,0.2,4-1.3,5.3-2.9
	c0,0.3,0.1,0.5,0.1,0.8c1.2,5.8,8.8,26.5,8.4,33.7s-3.2,10.2-4.4,14.8c-1.2,4.6,5.6,31.4,5.2,39c-0.3,5-5.1,9.2-8.3,11.4
	c-1.3,0.9-0.9,2.5,0.9,3c3.5,1,8.9,2.3,13,1.8c6.8-0.8,5.6-3.5,6.8-7.5c1.2-4,0.4-6.4,0-11.6s-0.4-22.6-0.4-26.9
	c0.1-4.3,2.3-18.3,0.4-21.8c-2-3.5,4.8-13.4,5.9-20.2c0.5-2.9,0.6-10.5,0.5-18.3c2.8,10.5,5.7,21.2,6.4,23.4
	c1.6,4.6,1.2,16.9,0,21.8c-1.2,4.8,3.8,20.4,4.5,28.8s-2.7,13.4,0,19.4s18.6,12.6,25.9,8.3c7.4-4.3-2.6-2.7-7.8-9.1
	s-6.8-13.2-7.6-19.6c-0.8-6.4,3.9-25.5,2.3-30.6s2.4-19.9,4.4-29c1.9-8.8-0.9-30.7-5.8-38.1c0.3-0.8,0.5-1.7,0.6-2.6
	c1.2-8.1,0.5-14.5-0.8-20.4c2.4,6.2,4.5,11.4,4.7,11.7c0.4,0.5,6.7,12,7,16.2C123.7,139,118.2,153.5,123.1,153.4z M60.4,142.1
	c-2.1-3.1-4.8-4.9-4-9.4s5.6-19.2,5.1-24.9s-2.7-5.9-0.7-9.7c0.5-1,1.5-2.4,2.6-4.1c0.2,0.9,0.4,1.9,0.6,3.1
	c1.6,8.3-5.7,23.4-3.2,32.4c-0.1,2.8-0.3,7.8-0.2,12.9C60.5,142.3,60.5,142.2,60.4,142.1z"/>
</svg>
