<?xml version="1.0" encoding="utf-8"?>
<!-- Generator: Adobe Illustrator 24.0.1, SVG Export Plug-In . SVG Version: 6.00 Build 0)  -->
<svg version="1.1" id="Capa_1" xmlns="http://www.w3.org/2000/svg" xmlns:xlink="http://www.w3.org/1999/xlink" x="0px" y="0px"
	 viewBox="0 0 177.7 275.1" style="enable-background:new 0 0 177.7 275.1;" xml:space="preserve">
<style type="text/css">
	.st0{fill:#FF4715;}
	.st1{fill:#FFFFFF;}
</style>
<path class="st0" d="M156.1,250.5H21.9c-7.6,0-13.7-6.1-13.7-13.7V40c0-7.6,6.1-13.7,13.7-13.7h134.3c7.6,0,13.7,6.1,13.7,13.7
	v196.8C169.8,244.3,163.7,250.5,156.1,250.5z"/>
<path class="st1" d="M132.7,151.6c6.8-0.7,11.7-9,11.1-13.1s-5.6-9.4-6.4-12c-0.9-2.6-3-21-5.6-24.8c-0.8-1.1-1.7-2-2.7-2.9
	c0.6-4.3,0.3-10.1-1.1-16.2c-1.9-8.6-5.2-15.6-8.5-18.7c0.6-4.2-0.1-9.5-11.4-10.5c-1.4-0.1-2.6-0.2-3.7-0.2
	c-4.8-1.3-9-1.7-12.6-1.7c-0.6-2.5-1.1-5.1-1.5-7.3c0.5-0.3,1.1-0.9,1.8-1.7c0.2-0.2,0.3-0.5,0.5-1c0.4-0.7,0.8-1.5,1.1-2.5
	c0.8-2.5,0.9-4.9,0.2-6.4c0.1-0.9,0.1-1.5,0.1-1.6c0-0.8,4.6-12.3-4.6-15.8c-10.8-4.2-13.2,0.4-17.8,3.4c-1.5,1-1.8,9.6-2.6,10.4
	s0.2,5,1.7,7.5c0.3,0.5,0.6,0.9,0.9,1.3c1.4,1.5,2.3,3.3,2.3,5.3c0,0-0.4,3.3-1.1,7.3c-1.3,1.4-3.7,2.5-5.6,3.2
	c-9.5-1.2-24.8-0.2-24.8,19.2c0,0-6.9,25.8-6.6,27.6c0.3,1.9,1.2,16.8,0.5,20.2c-0.7,3.4,1.1,15.1,0.4,17.1s-4.6,11.5-1.5,14.7
	s6.9,5.6,11.2,6c3.5,0.3,6.9-2.6,8.2-4.7c0.1,1,0.2,1.9,0.3,2.6c-1,4.3-0.8,9.9,0.8,15.8c1.9,6.7,5.3,12.1,8.9,15
	c-4.1,2.2-6.6,10.4-6,19.9c0.4,5.2,1.7,9.9,3.5,13.3c2,9.3,4.8,20.2,4.5,24.5c-0.3,5-6.4,9.2-10.4,11.4c-1.7,0.9-1.1,2.5,1.1,3
	c4.4,1,11.1,2.3,16.2,1.8c8.4-0.8,6.9-3.5,8.5-7.5c1.5-4,0.5-6.4,0-11.6s-0.5-22.6-0.4-26.9s2.9-18.3,0.4-21.8
	c-2.5-3.5,5.9-13.4,7.4-20.2c0.4-1.6,0.6-4.8,0.6-8.6c2.1,6.2,3.8,11.2,4.4,12.6c2,4.6,1.5,16.9,0,21.8c-1.5,4.8,4.7,20.4,5.6,28.8
	s-3.3,13.4,0,19.4s23.2,12.6,32.4,8.3c9.2-4.3-3.2-2.7-9.7-9.1c-6.4-6.4-8.4-13.2-9.4-19.6s4.8-25.5,2.9-30.6s3-19.9,5.5-29
	c1.8-6.7,0.2-21.2-3.4-30.9c5.6-9.5-5.5-30-10.4-40.9c5.3,9.2,13.4,21.9,13.8,22.2c0.6,0.4,10.1,11.3,10.6,15.4
	C132.8,137.2,125.9,152.3,132.7,151.6z M54,145.9c-0.5-1.8-1.3-3.6-2.4-4.8c-2.7-3.1-6.1-5-5.2-9.5c1-4.5,6.7-19.2,6-24.9
	c-0.7-5.7-3.5-6-1-9.8c0.5-0.7,1.2-1.7,2.1-2.8c-0.6,12.9-1.5,30.4,0.3,42.1c0,0.1,0,0.1,0,0.2C54,139.4,53.9,142.7,54,145.9z"/>
</svg>
