<?xml version="1.0" encoding="utf-8"?>
<!-- Generator: Adobe Illustrator 24.0.1, SVG Export Plug-In . SVG Version: 6.00 Build 0)  -->
<svg version="1.1" id="Capa_1" xmlns="http://www.w3.org/2000/svg" xmlns:xlink="http://www.w3.org/1999/xlink" x="0px" y="0px"
	 viewBox="0 0 177.7 275.1" style="enable-background:new 0 0 177.7 275.1;" xml:space="preserve">
<style type="text/css">
	.st0{fill:#FF0000;}
	.st1{fill:#FFFFFF;}
</style>
<path class="st0" d="M156.1,250.5H21.9c-7.6,0-13.7-6.1-13.7-13.7V40c0-7.6,6.1-13.7,13.7-13.7h134.3c7.6,0,13.7,6.1,13.7,13.7
	v196.8C169.8,244.3,163.7,250.5,156.1,250.5z"/>
<path class="st1" d="M134.4,148.1c7.8-0.7,13.4-9,12.8-13.1c-0.7-4.1-6.4-9.4-7.4-12c-1-2.6-3.4-21-6.4-24.8c-0.9-1.1-2-2-3.1-2.9
	c0.7-4.3,0.3-10.1-1.3-16.2c-2.2-8.6-6-15.6-9.8-18.7c0.6-4.2-0.1-9.5-13.1-10.5c-1.6-0.1-3-0.2-4.3-0.2c-2.2-0.8-4.7-1.4-7.6-1.9
	l-1.9-4.7v0c1-0.9,1.9-2.2,2.3-3.9c0.6-2.3,0.2-4.4-0.8-5.7c-0.1-0.3-0.2-0.7-0.3-1c0.1-0.9,0.1-1.5,0.1-1.6
	c0-0.8,4.6-12.3-4.6-15.8c-10.8-4.2-13.2,0.4-17.8,3.4c-1.5,1-1.8,9.6-2.6,10.4s0.2,5,1.7,7.5c0.3,0.5,0.6,0.9,0.9,1.3
	c1,1,1.7,2.2,2,3.4c-0.6,2.4-1.5,5.2-2.3,7.6c-1.8,0.5-3.3,1-4.7,1.6c-10.9-0.7-26,1.5-26,19.5c0,0-8,25.8-7.6,27.6
	c0.3,1.9,1.3,16.8,0.5,20.2c-0.8,3.4,1.2,15.1,0.5,17.1s-5.3,11.5-1.7,14.7c3.6,3.2,8,5.6,12.8,6s9.5-3.9,10-5.8
	c0.5-1.9-0.7-8.5-3.7-11.7c-3.1-3.1-7-5-5.9-9.5s7.8-19.2,6.9-24.9c-0.8-5.7-4-6-1.1-9.8c1.3-1.7,4.5-4.8,7.5-8.2c0,0.3,0,0.6,0,0.9
	c-1.8,3.5-2.9,7.3-2.9,11.4c0,3.4,0.7,6.6,2,9.6c-0.1,3.5-0.2,7-0.2,10.5c-2.5,4.7-3.9,10-3.9,15.6c0,6.5,1.9,12.6,5.2,17.8
	c0.1,1.9,0.3,3.5,0.5,4.8c-1,4.3-0.8,9.9,0.8,15.8c1.9,6.7,5.3,12.1,8.9,15c-4.1,2.2-6.6,10.4-6,19.9c0.4,5.2,1.7,9.9,3.5,13.3
	c2.1,9.3,4.8,20.2,4.5,24.5c-0.3,5-6.4,9.2-10.4,11.4c-1.7,0.9-1.1,2.5,1.1,3c4.4,1,11.1,2.3,16.2,1.8c8.4-0.8,6.9-3.5,8.5-7.5
	c1.5-4,0.5-6.4,0-11.6c-0.2-2.2-0.3-6.6-0.4-11.3c1.3-5.4,2.9-12,4.5-19.3c4.4-20.4-6.8-12.9-1.2-21.4c2.7-4.1,2.8-7.9,2.1-10.6
	c1.1-2.1,2-4.3,2.5-6.1c0.1-0.6,0.2-1.4,0.3-2.3c1.5,2.2,3.1,4.4,4.7,6.3c0,0-5.8,6.9,0.8,17.7c-0.2,1.6-0.5,3-0.8,4
	c-1.5,4.8,4.7,20.4,5.6,28.8s-3.3,13.4,0,19.4s23.2,12.6,32.4,8.3c9.2-4.3-3.2-2.7-9.7-9.1c-6.4-6.4-8.4-13.2-9.4-19.6
	c-1-6.3,4.7-24.9,3-30.4c2.5-3.7,4.4-8.9,5.5-15.2c0.5-2.9-0.4-5.9-1.6-8.5c0.6-2,1.1-3.9,1.6-5.6c1.2-4.6,0.9-12.6-0.6-20.4
	c1.7-4,2.6-8.3,2.6-12.8c0-8.4-3.1-16-8.4-22c-0.2-0.4-0.3-0.8-0.5-1.3c1.5,2,2.5,3.3,2.7,3.4c0.7,0.4,11.5,11.3,12.2,15.4
	C134.5,133.7,126.7,148.8,134.4,148.1z"/>
</svg>
